<svg width="106" height="106" viewBox="0 0 106 106" fill="none" xmlns="http://www.w3.org/2000/svg">
<g filter="url(#filter0_d_0_235)">
<rect x="20" y="12" width="66" height="66" rx="24" fill="url(#paint0_linear_0_235)"/>
</g>
<path fill-rule="evenodd" clip-rule="evenodd" d="M53.1935 45.7498C55.837 45.7498 57.9801 43.6068 57.9801 40.9632C57.9801 38.3197 55.837 36.1766 53.1935 36.1766C50.5499 36.1766 48.4069 38.3197 48.4069 40.9632C48.4069 43.6068 50.5499 45.7498 53.1935 45.7498Z" fill="white"/>
<path fill-rule="evenodd" clip-rule="evenodd" d="M57.3476 45.2141C56.2714 46.2402 54.8064 46.8716 53.1924 46.8716C51.5784 46.8716 50.1134 46.2402 49.0372 45.2141C48.8519 45.1682 48.6665 45.1228 48.4865 45.0998C48.3065 45.0768 48.1324 45.0768 47.9701 45.1019C47.8082 45.1265 47.6587 45.1767 47.4841 45.2392C47.3094 45.3012 47.1102 45.376 46.8608 45.5255C46.6119 45.6751 46.3123 45.8994 46.026 46.2739C45.7392 46.6472 45.4652 47.1713 45.2158 47.7946C44.9664 48.4174 44.742 49.1407 44.6176 49.8388C44.4931 50.5364 44.468 51.21 44.4558 51.7207C44.4429 52.2319 44.4429 52.5812 44.4931 52.9177C44.5428 53.2542 44.6422 53.5779 44.867 53.9022C45.0913 54.2264 45.4401 54.5506 45.8513 54.7996C46.2626 55.049 46.7363 55.2237 47.3847 55.3107C48.0326 55.3978 48.8551 55.3978 49.8522 55.3978H52.7438H53.1924H53.641H56.5326C57.5297 55.3978 58.3522 55.3978 59.0001 55.3107C59.6485 55.2237 60.1222 55.049 60.5335 54.7996C60.9447 54.5506 61.2935 54.2264 61.5178 53.9022C61.7426 53.5779 61.842 53.2542 61.8917 52.9177C61.9419 52.5812 61.9419 52.2319 61.929 51.7207C61.9168 51.21 61.8917 50.5364 61.7672 49.8388C61.6428 49.1407 61.4185 48.4174 61.169 47.7946C60.9196 47.1713 60.6456 46.6472 60.3588 46.2739C60.0725 45.8994 59.7729 45.6751 59.524 45.5255C59.2746 45.376 59.0754 45.3012 58.9008 45.2392C58.7261 45.1767 58.5766 45.1265 58.4147 45.1019C58.2524 45.0768 58.0783 45.0768 57.8983 45.0998C57.7183 45.1228 57.533 45.1682 57.3476 45.2141Z" fill="white"/>
<path fill-rule="evenodd" clip-rule="evenodd" d="M58.293 43.3221C59.1437 44.0988 60.2763 44.5731 61.519 44.5731C64.1619 44.5731 66.3044 42.4301 66.3044 39.7865C66.3044 37.143 64.1619 34.9999 61.519 34.9999C59.8219 34.9999 58.3304 35.884 57.4813 37.2167C58.4393 38.0916 59.0406 39.3523 59.0406 40.7523C59.0406 41.6977 58.7661 42.5802 58.293 43.3221Z" fill="white"/>
<path fill-rule="evenodd" clip-rule="evenodd" d="M47.707 43.3221C46.8563 44.0988 45.7237 44.5731 44.481 44.5731C41.8381 44.5731 39.6956 42.4301 39.6956 39.7865C39.6956 37.143 41.8381 34.9999 44.481 34.9999C46.1781 34.9999 47.6696 35.884 48.5187 37.2167C47.5607 38.0916 46.9594 39.3523 46.9594 40.7523C46.9594 41.6977 47.2339 42.5802 47.707 43.3221Z" fill="white"/>
<path fill-rule="evenodd" clip-rule="evenodd" d="M65.4096 44.2142C64.3651 45.2093 62.9551 45.8337 61.3976 45.8701L61.5697 46.0762C61.8566 46.4496 62.1307 46.9736 62.3802 47.597C62.6297 48.2198 62.8541 48.9431 62.9786 49.6412C63.1031 50.3388 63.1282 51.0124 63.1405 51.523C63.1533 52.0342 63.1533 52.3836 63.1031 52.7201C63.0534 53.0566 62.954 53.3803 62.7291 53.7045C62.5618 53.946 62.3257 54.1879 62.0463 54.3979H64.5943C65.5918 54.3979 66.4146 54.3979 67.0627 54.3108C67.7114 54.2237 68.1853 54.0491 68.5967 53.7996C69.0081 53.5507 69.357 53.2265 69.5814 52.9022C69.8063 52.578 69.9057 52.2543 69.9554 51.9178C70.0056 51.5813 70.0056 51.2319 69.9928 50.7207C69.9805 50.2101 69.9554 49.5365 69.8309 48.8389C69.7064 48.1408 69.482 47.4175 69.2325 46.7947C68.983 46.1713 68.7089 45.6473 68.422 45.2739C68.1356 44.8995 67.8359 44.6751 67.5869 44.5256C67.3374 44.376 67.1381 44.3012 66.9634 44.2393C66.7887 44.1768 66.6391 44.1266 66.4772 44.102C66.3147 44.0769 66.1406 44.0769 65.9605 44.0999C65.7804 44.1228 65.595 44.1682 65.4096 44.2142Z" fill="white"/>
<path fill-rule="evenodd" clip-rule="evenodd" d="M40.5903 44.2142C41.6349 45.2093 43.0449 45.8337 44.6023 45.8701L44.4303 46.0762C44.1434 46.4496 43.8693 46.9736 43.6198 47.597C43.3703 48.2198 43.1459 48.9431 43.0214 49.6412C42.8969 50.3388 42.8718 51.0124 42.8595 51.523C42.8467 52.0342 42.8467 52.3836 42.8969 52.7201C42.9466 53.0566 43.0459 53.3803 43.2709 53.7045C43.4381 53.946 43.6743 54.1879 43.9537 54.3979H41.4057C40.4081 54.3979 39.5853 54.3979 38.9372 54.3108C38.2886 54.2237 37.8147 54.0491 37.4033 53.7996C36.9919 53.5507 36.643 53.2265 36.4186 52.9022C36.1936 52.578 36.0942 52.2543 36.0446 51.9178C35.9943 51.5813 35.9943 51.2319 36.0072 50.7207C36.0194 50.2101 36.0446 49.5365 36.169 48.8389C36.2935 48.1408 36.5179 47.4175 36.7675 46.7947C37.017 46.1713 37.2911 45.6473 37.578 45.2739C37.8644 44.8995 38.1641 44.6751 38.4131 44.5256C38.6626 44.376 38.8619 44.3012 39.0366 44.2393C39.2113 44.1768 39.3609 44.1266 39.5228 44.102C39.6852 44.0769 39.8594 44.0769 40.0395 44.0999C40.2195 44.1228 40.4049 44.1682 40.5903 44.2142Z" fill="white"/>
<defs>
<filter id="filter0_d_0_235" x="0" y="0" width="106" height="106" filterUnits="userSpaceOnUse" color-interpolation-filters="sRGB">
<feFlood flood-opacity="0" result="BackgroundImageFix"/>
<feColorMatrix in="SourceAlpha" type="matrix" values="0 0 0 0 0 0 0 0 0 0 0 0 0 0 0 0 0 0 127 0" result="hardAlpha"/>
<feMorphology radius="2" operator="erode" in="SourceAlpha" result="effect1_dropShadow_0_235"/>
<feOffset dy="8"/>
<feGaussianBlur stdDeviation="11"/>
<feColorMatrix type="matrix" values="0 0 0 0 0.971137 0 0 0 0 0.341921 0 0 0 0 0.36709 0 0 0 0.3 0"/>
<feBlend mode="normal" in2="BackgroundImageFix" result="effect1_dropShadow_0_235"/>
<feBlend mode="normal" in="SourceGraphic" in2="effect1_dropShadow_0_235" result="shape"/>
</filter>
<linearGradient id="paint0_linear_0_235" x1="33.5" y1="12" x2="65" y2="78" gradientUnits="userSpaceOnUse">
<stop stop-color="#FF858A"/>
<stop offset="1" stop-color="#F04148"/>
</linearGradient>
</defs>
</svg>
